<?xml version="1.0" standalone="no"?>
<!DOCTYPE svg PUBLIC "-//W3C//DTD SVG 20010904//EN"
 "http://www.w3.org/TR/2001/REC-SVG-20010904/DTD/svg10.dtd">
<svg version="1.0" xmlns="http://www.w3.org/2000/svg"
 width="500.000000pt" height="500.000000pt" viewBox="0 0 500.000000 500.000000"
 preserveAspectRatio="xMidYMid meet">
<metadata>
Created by potrace 1.14, written by Peter Selinger 2001-2017
</metadata>
<g transform="translate(0.000000,500.000000) scale(0.100000,-0.100000)"
fill="#000000" stroke="none">
<path d="M3455 4686 c-164 -40 -299 -184 -334 -356 -6 -33 -10 -166 -10 -328
1 -189 -2 -277 -10 -285 -32 -32 13 -97 57 -83 27 9 42 46 29 74 -6 12 -13 22
-17 22 -11 0 -4 592 7 625 53 157 161 256 314 285 69 14 199 11 261 -6 150
-39 260 -153 286 -294 6 -30 10 -178 9 -330 -2 -239 -4 -278 -19 -299 -33 -47
19 -99 67 -67 26 17 33 54 14 73 -8 8 -12 107 -14 320 -1 169 -5 321 -9 338
-12 51 -68 146 -114 191 -93 93 -197 131 -362 131 -58 1 -127 -5 -155 -11z"/>
<path d="M4688 4045 c-2 -2 -37 -6 -78 -9 -74 -7 -130 -12 -220 -21 -25 -2
-83 -7 -130 -11 -47 -4 -92 -8 -100 -9 -11 -1 -16 -17 -18 -57 l-3 -56 198 2
197 1 48 -90 c96 -182 172 -413 204 -625 3 -19 7 -46 10 -60 24 -138 24 -569
0 -695 -2 -11 -7 -45 -11 -75 -4 -30 -9 -62 -10 -70 -1 -8 -6 -35 -10 -60 -4
-25 -16 -83 -27 -130 -11 -47 -21 -92 -23 -100 -35 -162 -146 -491 -224 -663
-38 -85 -39 -90 -3 -41 97 134 239 409 316 613 70 183 140 449 161 611 4 30 9
64 11 75 26 136 25 586 -1 750 -3 17 -7 44 -10 60 -2 17 -7 48 -10 70 -22 148
-92 364 -163 500 -41 79 -50 90 -74 91 -15 1 -29 0 -30 -1z"/>
<path d="M3897 3974 c-1 -1 -36 -5 -77 -8 -41 -4 -95 -9 -120 -11 -25 -3 -70
-7 -100 -10 -65 -6 -161 -15 -210 -20 -19 -2 -69 -7 -110 -10 -83 -8 -89 -10
-72 -27 8 -8 50 -11 124 -10 62 0 239 1 394 2 l280 1 -1 47 -1 47 -52 0 c-29
1 -54 0 -55 -1z"/>
<path d="M3029 3895 c-2 -2 -30 -5 -61 -7 -87 -6 -77 -14 15 -12 45 1 84 5 87
9 5 8 -34 18 -41 10z"/>
<path d="M2910 3395 c0 -3 -16 -77 -35 -163 -20 -86 -37 -166 -39 -177 -3 -11
-12 -54 -21 -95 -9 -41 -18 -84 -21 -95 -2 -11 -6 -33 -10 -48 -6 -27 -4 -28
27 -25 19 2 33 9 34 18 2 8 19 92 40 185 21 94 38 176 38 183 1 34 19 -3 86
-175 40 -104 78 -201 85 -217 11 -29 15 -22 96 187 47 121 87 212 91 205 4 -7
23 -89 44 -183 20 -93 39 -178 41 -187 4 -12 15 -18 35 -18 16 0 29 3 29 6 0
4 -9 45 -20 93 -10 47 -40 180 -65 296 -25 115 -48 211 -49 213 -3 3 -17 -31
-132 -328 -30 -80 -57 -146 -58 -148 -2 -1 -22 48 -46 110 -23 62 -48 127 -55
143 -7 17 -29 74 -50 128 -32 85 -45 111 -45 92z"/>
<path d="M210 3080 l0 -292 133 4 c125 3 136 5 174 30 47 31 73 80 73 138 0
52 -20 90 -67 129 -30 24 -34 31 -20 36 25 10 51 88 43 129 -8 43 -47 91 -84
104 -15 5 -78 10 -140 11 l-112 2 0 -291z m232 219 c54 -22 61 -113 11 -146
-17 -11 -51 -18 -104 -19 l-79 -3 0 89 c0 76 2 89 18 92 30 6 126 -2 154 -13z
m43 -253 c39 -30 50 -60 41 -109 -9 -50 -44 -77 -107 -85 -30 -4 -61 -6 -69
-6 -8 1 -30 2 -47 3 l-33 1 0 109 0 110 28 3 c15 2 55 2 89 2 52 -1 69 -6 98
-28z"/>
<path d="M4330 3311 c-23 -6 -25 -12 -26 -66 -1 -33 -2 -65 -3 -71 0 -5 -21
-9 -46 -8 -43 2 -45 1 -45 -27 0 -28 2 -29 48 -29 l48 0 -1 -147 c-1 -82 0
-154 3 -160 2 -7 17 -13 32 -13 l27 0 1 148 c0 81 0 153 1 160 1 7 17 12 46
12 43 0 45 1 45 28 0 25 -4 28 -32 29 -67 1 -64 -3 -62 73 1 39 -1 72 -5 74
-3 1 -17 0 -31 -3z"/>
<path d="M1243 3172 c-12 -2 -33 -17 -47 -33 -14 -16 -26 -29 -28 -29 -2 0 -4
12 -3 27 0 23 -5 28 -25 29 -14 1 -27 -2 -30 -6 -3 -5 -5 -88 -5 -187 l1 -178
30 -3 30 -3 1 115 c1 95 4 121 20 148 24 42 65 63 93 48 18 -10 20 -8 20 28 0
42 -12 51 -57 44z"/>
<path d="M1515 3173 c-11 -2 -30 -6 -42 -8 -34 -8 -84 -55 -104 -100 -26 -57
-24 -121 6 -181 34 -68 81 -98 155 -99 50 0 64 5 103 32 l45 33 -4 -30 c-5
-28 -3 -30 24 -30 17 0 32 6 34 13 3 10 2 291 -1 350 -1 13 -8 17 -28 14 -16
-2 -29 -10 -29 -18 -1 -8 -2 -20 -3 -28 -1 -11 -7 -9 -23 6 -40 36 -93 54
-133 46z m81 -71 c94 -51 98 -191 7 -243 -35 -20 -100 -18 -135 5 -32 21 -58
73 -58 116 0 95 106 165 186 122z"/>
<path d="M2005 3174 c-5 -1 -22 -5 -37 -8 -37 -8 -85 -51 -109 -98 -44 -87
-15 -204 64 -256 32 -21 52 -27 98 -27 50 0 63 5 98 33 l41 33 0 -31 c0 -27 3
-30 30 -30 l30 0 -2 188 -3 187 -27 1 c-24 1 -28 -3 -28 -27 l0 -29 -42 30
c-39 26 -87 41 -113 34z m107 -91 c93 -83 38 -239 -84 -237 -26 1 -58 8 -72
18 -73 47 -76 169 -7 223 43 34 123 32 163 -4z"/>
<path d="M2456 3167 c-55 -14 -111 -75 -126 -136 -21 -88 3 -158 73 -215 33
-26 46 -31 97 -31 50 0 66 5 103 31 l44 31 -1 -133 c-1 -124 0 -133 18 -138
11 -3 25 -1 31 4 8 6 11 99 10 297 l0 288 -27 2 c-27 2 -33 -5 -29 -34 3 -18
-4 -16 -52 11 -52 29 -91 36 -141 23z m138 -80 c49 -49 61 -108 36 -166 -58
-127 -240 -88 -246 53 -2 54 38 116 86 132 37 12 103 2 124 -19z"/>
<path d="M3611 3164 c-114 -33 -164 -165 -106 -280 34 -68 81 -98 155 -99 47
0 64 5 96 27 38 27 59 23 47 -9 -4 -9 4 -13 25 -13 20 0 31 6 34 18 3 13 2
321 -1 355 -1 12 -56 2 -57 -11 -1 -7 -2 -20 -3 -29 -1 -14 -4 -14 -23 4 -50
45 -102 57 -167 37z m157 -99 c26 -29 32 -43 32 -81 0 -141 -164 -194 -241
-77 -22 33 -24 93 -5 131 45 88 146 101 214 27z"/>
<path d="M670 3032 c0 -116 3 -142 20 -178 23 -47 66 -73 115 -69 17 1 38 3
48 4 10 0 32 14 48 30 l29 29 0 -29 c0 -26 4 -29 30 -29 l30 0 0 189 0 189
-30 -2 -30 -1 -1 -105 c0 -118 -12 -164 -50 -192 -36 -27 -93 -31 -121 -8 -22
17 -23 27 -26 163 l-4 146 -29 -1 -29 -1 0 -135z"/>
<path d="M3994 3161 c-2 -2 -4 -87 -4 -188 l0 -183 29 0 29 0 4 118 c3 130 16
168 60 190 21 10 33 10 48 2 21 -11 22 -11 24 38 1 24 -3 27 -37 30 -32 3 -43
-2 -67 -28 l-30 -32 0 31 c0 27 -3 31 -26 29 -14 -2 -27 -4 -30 -7z"/>
<path d="M172 2433 c-14 -6 -42 -55 -42 -76 0 -26 48 -67 78 -67 25 0 71 30
73 48 0 4 2 16 4 26 8 42 -67 88 -113 69z m82 -35 c21 -30 20 -51 -4 -73 -41
-37 -100 -13 -100 41 0 52 74 75 104 32z"/>
<path d="M418 2375 c-3 -70 -1 -88 11 -81 4 3 6 25 5 50 -1 26 2 46 7 46 5 0
9 -3 9 -8 0 -4 15 -28 33 -54 l33 -46 1 79 c2 84 -12 111 -16 32 -1 -26 -4
-49 -5 -51 -2 -1 -18 20 -36 48 -18 27 -33 50 -35 50 -2 0 -5 -29 -7 -65z"/>
<path d="M658 2376 c-1 -37 -1 -71 0 -76 2 -6 20 -10 40 -10 38 0 38 12 -1 15
-20 2 -22 7 -22 62 0 84 -12 90 -17 9z"/>
<path d="M857 2433 c-7 -13 -2 -132 6 -139 4 -4 7 27 7 69 0 72 -3 88 -13 70z"/>
<path d="M1097 2388 c4 -52 4 -53 -15 -33 -10 11 -27 33 -36 48 -10 15 -22 27
-26 27 -5 0 -8 -31 -7 -70 1 -82 15 -94 19 -18 l3 53 34 -53 c18 -29 35 -51
37 -49 11 11 7 147 -5 147 -5 0 -7 -24 -4 -52z"/>
<path d="M1257 2433 c-2 -5 -4 -38 -4 -75 l-1 -68 44 0 c24 0 44 4 44 9 0 6
-9 8 -20 6 -32 -6 -50 5 -50 31 0 20 4 23 30 20 17 -2 33 0 36 5 3 5 -11 9
-30 9 -32 0 -36 3 -36 25 0 20 5 25 25 25 14 0 25 4 25 8 0 10 -57 15 -63 5z"/>
<path d="M1662 2428 c-25 -25 -7 -68 28 -68 9 0 25 -6 35 -14 16 -12 17 -16 6
-30 -14 -17 -34 -17 -69 3 -22 12 -23 11 -12 -8 15 -28 80 -29 97 -2 16 25 -7
57 -46 66 -36 8 -47 31 -21 45 24 13 26 13 44 -6 14 -13 16 -13 16 -1 0 26
-56 37 -78 15z"/>
<path d="M1890 2440 c-7 -12 -6 -150 1 -150 4 0 9 15 11 33 3 28 6 32 33 32
26 0 30 -4 31 -30 2 -40 4 -43 12 -23 9 21 3 142 -6 133 -4 -4 -8 -15 -8 -26
-1 -10 -2 -23 -3 -29 0 -5 -14 -10 -30 -10 -27 0 -30 4 -34 38 -2 20 -5 35 -7
32z"/>
<path d="M2142 2417 c-29 -31 -29 -77 1 -105 45 -42 111 -18 123 45 13 67 -77
110 -124 60z m102 -30 c23 -63 -44 -108 -91 -61 -27 27 -24 58 8 86 27 23 71
10 83 -25z"/>
<path d="M2403 2365 c0 -41 4 -75 9 -75 4 0 8 14 8 30 0 27 3 30 30 30 23 0
33 6 42 25 15 33 -7 58 -55 61 l-34 3 0 -74z m75 28 c2 -13 0 -24 -5 -24 -49
-8 -53 -6 -53 23 0 26 3 29 28 26 19 -2 28 -9 30 -25z"/>
<path d="M2630 2365 c0 -41 4 -75 9 -75 4 0 8 8 8 18 0 36 4 42 26 42 29 0 47
18 47 46 0 27 -9 33 -55 39 l-35 5 0 -75z m73 42 c8 -21 -9 -41 -36 -42 -20
-2 -23 3 -21 24 1 14 2 27 3 29 4 9 50 -1 54 -11z"/>
<path d="M2853 2365 c-1 -41 3 -75 8 -75 5 0 9 34 9 75 0 41 -4 75 -8 75 -5 0
-9 -34 -9 -75z"/>
<path d="M3010 2363 c0 -50 4 -73 9 -64 5 8 8 33 6 55 -4 46 -7 48 56 -35 l27
-34 1 69 c0 86 -12 110 -19 36 l-5 -55 -34 53 c-18 28 -35 52 -37 52 -2 0 -4
-35 -4 -77z"/>
<path d="M3264 2415 c-19 -19 -23 -31 -19 -57 11 -64 83 -90 125 -46 30 33 25
48 -15 48 -19 0 -35 -4 -35 -9 0 -5 11 -8 25 -5 30 5 33 -10 5 -29 -47 -33
-104 14 -84 70 13 37 56 47 89 21 33 -26 46 -15 14 11 -33 28 -75 26 -105 -4z"/>
<path d="M3808 2434 c-5 -4 -8 -13 -8 -19 0 -7 -7 -30 -16 -51 l-17 -39 -20
53 c-11 28 -22 52 -26 52 -3 0 -13 -31 -22 -70 -9 -38 -12 -70 -8 -70 8 0 28
62 29 90 1 8 10 -7 21 -35 11 -27 22 -51 24 -53 2 -2 14 21 28 50 19 40 26 48
27 31 2 -13 4 -27 5 -33 1 -5 3 -19 4 -30 0 -11 6 -20 11 -20 7 0 8 14 4 38
-12 65 -29 114 -36 106z"/>
<path d="M3993 2365 c-18 -41 -28 -75 -23 -75 5 0 12 9 15 20 5 15 15 20 42
20 26 0 36 -5 40 -20 4 -16 23 -30 23 -17 0 9 -53 133 -59 140 -4 4 -21 -27
-38 -68z m57 -11 c0 -7 -10 -11 -23 -10 -22 1 -23 3 -13 34 10 33 10 33 22 10
8 -13 13 -28 14 -34z"/>
<path d="M4220 2365 c0 -42 4 -75 10 -75 5 0 8 14 6 30 -2 20 1 30 10 30 8 0
14 -3 14 -7 1 -13 40 -56 46 -50 3 3 -2 17 -11 30 -14 21 -14 27 -2 34 42 25
19 75 -37 80 l-36 3 0 -75z m77 39 c9 -24 -23 -51 -45 -38 -16 11 -23 30 -15
47 7 14 54 7 60 -9z"/>
<path d="M4440 2428 c0 -4 8 -8 18 -8 15 0 17 -9 14 -65 -1 -40 1 -65 8 -65 6
0 10 29 10 71 0 59 3 70 15 65 8 -3 15 -1 15 4 0 6 -18 9 -40 8 -22 -1 -40 -5
-40 -10z"/>
</g>
</svg>
